<!-- <?xml version="1.0" encoding="utf-8"?> -->
<!-- Generator: Adobe Illustrator 16.0.0, SVG Export Plug-In . SVG Version: 6.00 Build 0)  -->
<!-- <!DOCTYPE svg PUBLIC "-//W3C//DTD SVG 1.1//EN" "http://www.w3.org/Graphics/SVG/1.1/DTD/svg11.dtd"> -->
<svg version="1.1" id="Layer_1" xmlns="http://www.w3.org/2000/svg" xmlns:xlink="http://www.w3.org/1999/xlink" x="0px" y="0px"
	 width="80px" height="80px" viewBox="0 0 128 128" enable-background="new 0 0 128 128" xml:space="preserve">
<g>
	<g>
		<g>
			<g>
				<path fill="#282D33" d="M90.354,73.002c-5.893,0-11.73-1.415-16.936-4.1L60.25,72.405l3.03-11.222
					c-6.257-6.754-9.69-15.474-9.69-24.683C53.59,16.374,70.082,0,90.354,0s36.762,16.374,36.762,36.501
					C127.115,56.628,110.625,73.002,90.354,73.002z M73.918,64.626l0.701,0.381c4.795,2.61,10.236,3.989,15.734,3.989
					c18.063,0,32.758-14.577,32.758-32.495c0-17.919-14.695-32.497-32.758-32.497S57.595,18.583,57.595,36.5
					c0,8.536,3.316,16.601,9.339,22.709l0.807,0.818l-1.816,6.724L73.918,64.626z"/>
			</g>
		</g>
		<g>
			<g>
				<path fill="#282D33" d="M35.211,128l-4.539-9.839l0.449-9.642l-4.038-8.067l1.456-5.171l-0.875,0.572l-1.023-2.548l-2.693-0.542
					l-8.038-6.797l-1.747-9.266l-2.586-5.158l-7.693,5.619l-3-7.229L6.65,58.127l12.178-0.575l12.188-6.916l20.652,1.495
					l2.125,9.322l-10.193,8.454l-4.767-1.229l2.842,4.828l-8.81,9.157l-5.062,2.79l1.777,4.358l3.399-2.225l14.091,11.58
					l-9.279,20.702l1.209,6.947L35.211,128z M31.358,100.046l3.812,7.615l-0.429,9.227l7.425-16.568l-8.84-7.264L31.358,100.046z
					 M19.583,83.828l4.925,4.164l-1.741-4.336l7.635-4.207l6.282-6.528L30.484,62.39l12.135,3.128l6.722-5.576l-0.919-4.031
					l-16.485-1.193l-11.966,6.789L9.208,62.016l-3.932,8.052l0.356,0.858l7.404-5.408l4.959,9.892L19.583,83.828z"/>
			</g>
			<g>
				<polygon fill="#282D33" points="63.629,118.773 59.821,97.709 51.826,96.688 50.604,82.349 60.357,82.737 65.26,82.48
					66.107,81.637 61.88,79.608 58.911,82.307 49.567,77.942 53.999,74.535 51.93,69.111 55.672,67.684 58.804,75.892 57.23,77.102
					58.19,77.551 61.182,74.831 72.945,80.477 67,86.399 60.382,86.747 54.98,86.531 55.542,93.125 63.241,94.108 66.07,109.758
					70.621,104.436 71.463,95.765 74.637,91.169 76.291,88.275 73.713,82.982 84.857,84.076 86.713,89.159 88.592,85.36
					94.369,91.067 94.434,88.867 100.547,84.374 104.072,75.295 107.805,76.744 103.859,86.911 98.379,90.938 98.105,100.138
					94.232,100.789 91.666,94.028 89.723,92.108 86.16,99.318 81.959,87.815 80.451,87.668 80.82,88.427 77.98,93.375 75.35,97.187
					74.484,106.081 				"/>
			</g>
			<g>
				<path fill="#282D33" d="M107.664,121.803l-4.49-6.814l-6.762,1.335l-0.73-8.386l8.047-7.234l11.311,3.017l-1.115,7.942
					l-0.385,1.915L107.664,121.803z M105.037,110.537l2.76,4.188l1.982-2.777l0.205-1.017l0.596-4.256l-5.787-1.544l-4.949,4.448
					l0.17,1.95L105.037,110.537z"/>
			</g>
		</g>
	</g>
	<g>
		<g>
			<path fill="#282D33" d="M89.166,52.953L77.23,41.107c-1.676-1.663-2.598-3.875-2.598-6.229c0-2.354,0.924-4.565,2.6-6.228
				l0.1-0.1c1.674-1.661,3.895-2.574,6.256-2.574c2.057,0,4.006,0.693,5.58,1.966c1.572-1.274,3.521-1.966,5.578-1.966
				c2.361,0,4.584,0.914,6.254,2.572l0.111,0.111c1.664,1.655,2.586,3.866,2.586,6.219c0,2.354-0.922,4.564-2.594,6.228
				L89.166,52.953z M83.588,29.982c-1.297,0-2.516,0.5-3.434,1.41l-0.1,0.1c-0.914,0.907-1.416,2.109-1.416,3.386
				c0,1.279,0.502,2.481,1.414,3.387l9.113,9.045l9.117-9.048c0.908-0.902,1.41-2.104,1.41-3.383c0-1.278-0.502-2.48-1.414-3.386
				l-0.109-0.111c-0.906-0.9-2.125-1.4-3.424-1.4s-2.518,0.5-3.434,1.409l-2.145,2.136l-2.148-2.138
				C86.105,30.482,84.887,29.982,83.588,29.982z"/>
		</g>
	</g>
</g>
</svg>
