<svg xmlns="http://www.w3.org/2000/svg" width="19.785" height="22.828" viewBox="0 0 19.785 22.828">
  <g>
    <polygon points="10.881 8.414 10.881 3.798 12.189 5.105 13.604 3.691 9.91 0 6.188 3.722 7.602 5.136 8.881 3.856 8.881 8.414 10.881 8.414"/>
    <polygon points="10.881 19.001 10.881 14.414 8.881 14.414 8.881 19.001 7.602 17.723 6.188 19.137 9.881 22.828 13.604 19.107 12.189 17.693 10.881 19.001"/>
    <polygon points="5.062 4.342 0.018 5.694 1.379 10.778 3.311 10.261 2.843 8.514 6.79 10.793 7.79 9.061 3.793 6.753 5.579 6.273 5.062 4.342"/>
    <polygon points="16.48 12.566 16.959 14.354 12.986 12.061 11.986 13.793 15.958 16.086 14.212 16.555 14.729 18.486 19.773 17.134 18.412 12.049 16.48 12.566"/>
    <polygon points="7.801 13.787 6.801 12.055 2.805 14.361 3.282 12.576 1.351 12.059 0 17.103 5.083 18.466 5.601 16.534 3.854 16.065 7.801 13.787"/>
    <polygon points="14.184 6.282 15.97 6.762 11.998 9.055 12.998 10.787 16.97 8.494 16.502 10.24 18.434 10.758 19.785 5.714 14.701 4.351 14.184 6.282"/>
  </g>
</svg>
