<svg id="Layer_1" data-name="Layer 1" xmlns="http://www.w3.org/2000/svg" viewBox="0 0 128 128"><title>PEOPLE</title><path d="M70.931,54.3a11.323,11.323,0,1,0-13.862,0A22.285,22.285,0,0,0,41.75,75.442a1.75,1.75,0,0,0,1.75,1.75h41a1.75,1.75,0,0,0,1.75-1.75A22.285,22.285,0,0,0,70.931,54.3ZM56.177,45.369A7.823,7.823,0,1,1,64,53.192,7.832,7.832,0,0,1,56.177,45.369ZM45.331,73.692a18.751,18.751,0,0,1,37.338,0Z"/><path d="M110.242,30.143a1.747,1.747,0,0,0-1.232-1.487,403.97,403.97,0,0,1-44.289-16.1,1.744,1.744,0,0,0-1.442,0,403.97,403.97,0,0,1-44.289,16.1,1.747,1.747,0,0,0-1.232,1.487A113.457,113.457,0,0,0,20.67,66.085c6.257,25.127,21.05,42.22,42.779,49.43a1.75,1.75,0,0,0,1.1,0c21.729-7.21,36.522-24.3,42.779-49.43A113.457,113.457,0,0,0,110.242,30.143Zm-6.309,35.1C97.949,89.271,84.515,105,64,112.007c-20.487-7-33.912-22.694-39.909-46.672a113.508,113.508,0,0,1-2.949-33.676A415.982,415.982,0,0,0,64,16.06a416.235,416.235,0,0,0,42.858,15.6A113.251,113.251,0,0,1,103.933,65.239Z"/><path d="M101.339,34.655c-17.382-5.5-30.426-10.754-36.655-13.4a1.755,1.755,0,0,0-1.368,0c-6.229,2.643-19.273,7.9-36.655,13.4a1.751,1.751,0,0,0-1.222,1.632,107.982,107.982,0,0,0,3.1,28.293c5.43,21.36,17.149,35.63,34.832,42.414a1.753,1.753,0,0,0,1.254,0C82.31,100.21,94.029,85.94,99.459,64.58a107.99,107.99,0,0,0,3.1-28.293A1.751,1.751,0,0,0,101.339,34.655ZM96.066,63.718C91,83.656,80.211,97.031,64,103.481c-16.211-6.45-27-19.825-32.066-39.763A105.715,105.715,0,0,1,28.92,37.61C45.235,32.4,57.629,27.453,64,24.769,70.371,27.453,82.765,32.4,99.08,37.61A105.725,105.725,0,0,1,96.066,63.718Z"/></svg>